<svg width="12" height="13" viewBox="0 0 12 13" fill="none" xmlns="http://www.w3.org/2000/svg">
<path d="M10.5586 0.603234L0.558594 10.654C0.402344 10.8241 0.324219 11.0204 0.324219 11.2429C0.324219 11.4654 0.405599 11.6584 0.568359 11.822C0.73112 11.9856 0.923177 12.0674 1.14453 12.0674C1.36589 12.0674 1.5612 11.9889 1.73047 11.8318L11.7305 1.78106C11.8477 1.67636 11.9258 1.55204 11.9648 1.40808C12.0039 1.26412 12.0039 1.1169 11.9648 0.966396C11.9258 0.815897 11.8542 0.688299 11.75 0.583604C11.6458 0.478909 11.5189 0.406931 11.3691 0.36767C11.2194 0.328409 11.0729 0.328409 10.9297 0.36767C10.7865 0.406931 10.6628 0.485452 10.5586 0.603234ZM0.558594 1.78106L10.5586 11.8318C10.7279 11.9889 10.9232 12.0674 11.1445 12.0674C11.3659 12.0674 11.5579 11.9856 11.7207 11.822C11.8835 11.6584 11.9648 11.4654 11.9648 11.2429C11.9648 11.0204 11.8867 10.8241 11.7305 10.654L1.73047 0.603234C1.5612 0.446191 1.36589 0.36767 1.14453 0.36767C0.923177 0.36767 0.73112 0.449463 0.568359 0.61305C0.405599 0.776636 0.324219 0.969668 0.324219 1.19215C0.324219 1.41462 0.402344 1.61093 0.558594 1.78106Z" fill="white"/>
</svg>
