<svg width="20" height="20" viewBox="0 0 20 20" fill="none" xmlns="http://www.w3.org/2000/svg">
<path d="M17.1223 9.43173V10.2169C17.0963 11.9182 16.5983 13.42 15.6282 14.7221C14.6581 16.0243 13.3658 16.9305 11.7512 17.4409C10.1236 17.899 8.54812 17.8466 7.02468 17.2839C5.50125 16.7211 4.27078 15.7331 3.33328 14.3197C2.43484 12.8801 2.0377 11.3457 2.14187 9.71637C2.24604 8.08705 2.83849 6.61804 3.91922 5.30935C5.03901 4.03992 6.38992 3.22526 7.97195 2.86537C9.55398 2.50547 11.1197 2.65925 12.6692 3.32668C12.8124 3.39211 12.9589 3.41829 13.1087 3.4052C13.2584 3.39211 13.3951 3.33977 13.5188 3.24816C13.6425 3.15655 13.7337 3.04204 13.7923 2.90462C13.8509 2.76721 13.8736 2.62326 13.8606 2.47276C13.8476 2.32226 13.7955 2.18812 13.7044 2.07033C13.6132 1.95255 13.496 1.86094 13.3528 1.79551C11.4518 0.971033 9.53445 0.778 7.60086 1.21641C5.66726 1.65483 4.01687 2.65925 2.64968 4.22968C1.33458 5.82628 0.611924 7.61919 0.481715 9.6084C0.351507 11.5976 0.833278 13.469 1.92703 15.2227C3.08588 16.9502 4.59304 18.1607 6.44851 18.8543C8.30398 19.5479 10.2278 19.6134 12.22 19.0506C14.1992 18.4355 15.7812 17.3297 16.9661 15.7331C18.151 14.1365 18.7565 12.2978 18.7825 10.2169V9.43173C18.7825 9.19617 18.7044 8.99986 18.5481 8.84282C18.3919 8.68578 18.1966 8.60725 17.9622 8.60725C17.7278 8.60725 17.5292 8.68578 17.3665 8.84282C17.2037 8.99986 17.1223 9.19617 17.1223 9.43173ZM7.70828 8.78393C7.53901 8.62688 7.34369 8.54836 7.12234 8.54836C6.90099 8.54836 6.70893 8.63343 6.54617 8.80356C6.38341 8.97369 6.30203 9.16672 6.30203 9.38266C6.30203 9.59859 6.38015 9.79162 6.5364 9.96175L9.0364 12.4744C9.20567 12.6446 9.40099 12.7296 9.62234 12.7296C9.84369 12.7296 10.039 12.6446 10.2083 12.4744L19.3684 3.26779C19.4856 3.16309 19.5637 3.03877 19.6028 2.89481C19.6419 2.75085 19.6419 2.60363 19.6028 2.45313C19.5637 2.30263 19.4921 2.17503 19.388 2.07033C19.2838 1.96564 19.1568 1.89366 19.0071 1.8544C18.8574 1.81514 18.7109 1.81514 18.5677 1.8544C18.4244 1.89366 18.3007 1.97218 18.1966 2.08996L9.62234 10.7077L7.70828 8.78393Z" fill="white"/>
</svg>
