<svg width="27" height="27" viewBox="0 0 27 27" fill="none" xmlns="http://www.w3.org/2000/svg">
<path d="M24.5824 14.5059C23.4306 14.5059 22.4968 15.4396 22.4968 16.5914V21.9171H4.83909V16.5914C4.83909 15.4396 3.90532 14.5059 2.75353 14.5059C1.60174 14.5059 0.667969 15.4396 0.667969 16.5914V24.0027C0.667969 25.1544 1.60174 26.0882 2.75353 26.0882H24.5824C25.7342 26.0882 26.668 25.1544 26.668 24.0027V16.5914C26.668 15.4396 25.7342 14.5059 24.5824 14.5059Z" fill="#686868"/>
<path d="M9.25557 9.52861L11.5836 7.20059V14.971C11.5836 16.1228 12.5174 17.0565 13.6692 17.0565C14.821 17.0565 15.7547 16.1228 15.7547 14.971V7.20052L18.0828 9.52854C18.49 9.93578 19.0237 10.1394 19.5575 10.1394C20.0913 10.1394 20.6249 9.93578 21.0322 9.52854C21.8467 8.71407 21.8467 7.39364 21.0322 6.57917L15.1439 0.690986C14.3295 -0.123558 13.0089 -0.123558 12.1945 0.690986L6.30617 6.57924C5.49169 7.39371 5.49169 8.71414 6.30617 9.52861C7.12059 10.3431 8.44116 10.3431 9.25557 9.52861Z" fill="#686868"/>
</svg>
